<svg id="Group_216" data-name="Group 216" xmlns="http://www.w3.org/2000/svg" viewBox="0 0 34.256 26.681">
  <defs>
    <style>
      .cls-1 {
        fill: #000;
      }
    </style>
  </defs>
  <rect id="Rectangle_268" data-name="Rectangle 268" class="cls-1" width="3.788" height="3.788" transform="translate(30.468 19.022)"/>
  <rect id="Rectangle_269" data-name="Rectangle 269" class="cls-1" width="3.788" height="3.788" transform="translate(30.468 15.234)"/>
  <rect id="Rectangle_270" data-name="Rectangle 270" class="cls-1" width="3.788" height="3.788" transform="translate(30.468 11.363)"/>
  <rect id="Rectangle_271" data-name="Rectangle 271" class="cls-1" width="3.788" height="3.872" transform="translate(26.681 22.809)"/>
  <rect id="Rectangle_272" data-name="Rectangle 272" class="cls-1" width="3.788" height="3.788" transform="translate(26.681 19.022)"/>
  <rect id="Rectangle_273" data-name="Rectangle 273" class="cls-1" width="3.788" height="3.788" transform="translate(26.681 11.363)"/>
  <rect id="Rectangle_274" data-name="Rectangle 274" class="cls-1" width="3.788" height="3.788" transform="translate(26.681 7.575)"/>
  <rect id="Rectangle_275" data-name="Rectangle 275" class="cls-1" width="3.788" height="3.788" transform="translate(26.681 3.788)"/>
  <rect id="Rectangle_276" data-name="Rectangle 276" class="cls-1" width="3.872" height="3.788" transform="translate(22.809 19.022)"/>
  <rect id="Rectangle_277" data-name="Rectangle 277" class="cls-1" width="3.872" height="3.788" transform="translate(22.809 11.363)"/>
  <rect id="Rectangle_278" data-name="Rectangle 278" class="cls-1" width="3.872" height="3.788" transform="translate(22.809)"/>
  <rect id="Rectangle_279" data-name="Rectangle 279" class="cls-1" width="3.788" height="3.788" transform="translate(19.022 19.022)"/>
  <rect id="Rectangle_280" data-name="Rectangle 280" class="cls-1" width="3.788" height="3.788" transform="translate(19.022 15.234)"/>
  <rect id="Rectangle_281" data-name="Rectangle 281" class="cls-1" width="3.788" height="3.788" transform="translate(19.022 11.363)"/>
  <rect id="Rectangle_282" data-name="Rectangle 282" class="cls-1" width="3.788" height="3.788" transform="translate(19.022)"/>
  <rect id="Rectangle_283" data-name="Rectangle 283" class="cls-1" width="3.788" height="3.788" transform="translate(15.234 19.022)"/>
  <rect id="Rectangle_284" data-name="Rectangle 284" class="cls-1" width="3.788" height="3.788" transform="translate(15.234 15.234)"/>
  <rect id="Rectangle_285" data-name="Rectangle 285" class="cls-1" width="3.788" height="3.788" transform="translate(15.234 11.363)"/>
  <rect id="Rectangle_286" data-name="Rectangle 286" class="cls-1" width="3.788" height="3.788" transform="translate(15.234)"/>
  <rect id="Rectangle_287" data-name="Rectangle 287" class="cls-1" width="3.788" height="3.788" transform="translate(11.363 19.022)"/>
  <rect id="Rectangle_288" data-name="Rectangle 288" class="cls-1" width="3.788" height="3.788" transform="translate(11.363 15.234)"/>
  <rect id="Rectangle_289" data-name="Rectangle 289" class="cls-1" width="3.788" height="3.788" transform="translate(11.363 11.363)"/>
  <rect id="Rectangle_290" data-name="Rectangle 290" class="cls-1" width="3.788" height="3.788" transform="translate(11.363)"/>
  <rect id="Rectangle_291" data-name="Rectangle 291" class="cls-1" width="3.788" height="3.788" transform="translate(7.575 19.022)"/>
  <rect id="Rectangle_292" data-name="Rectangle 292" class="cls-1" width="3.788" height="3.788" transform="translate(7.575 11.363)"/>
  <rect id="Rectangle_293" data-name="Rectangle 293" class="cls-1" width="3.788" height="3.788" transform="translate(7.575)"/>
  <rect id="Rectangle_294" data-name="Rectangle 294" class="cls-1" width="3.788" height="3.872" transform="translate(3.788 22.809)"/>
  <rect id="Rectangle_295" data-name="Rectangle 295" class="cls-1" width="3.788" height="3.788" transform="translate(3.788 19.022)"/>
  <rect id="Rectangle_296" data-name="Rectangle 296" class="cls-1" width="3.788" height="3.788" transform="translate(3.788 11.363)"/>
  <rect id="Rectangle_297" data-name="Rectangle 297" class="cls-1" width="3.788" height="3.788" transform="translate(3.788 7.575)"/>
  <rect id="Rectangle_298" data-name="Rectangle 298" class="cls-1" width="3.788" height="3.788" transform="translate(3.788 3.788)"/>
  <rect id="Rectangle_299" data-name="Rectangle 299" class="cls-1" width="3.788" height="3.788" transform="translate(0 19.022)"/>
  <rect id="Rectangle_300" data-name="Rectangle 300" class="cls-1" width="3.788" height="3.788" transform="translate(0 15.234)"/>
  <rect id="Rectangle_301" data-name="Rectangle 301" class="cls-1" width="3.788" height="3.788" transform="translate(0 11.363)"/>
</svg>
